<?xml version="1.0" standalone="no"?>
<!DOCTYPE svg PUBLIC "-//W3C//DTD SVG 20010904//EN"
 "http://www.w3.org/TR/2001/REC-SVG-20010904/DTD/svg10.dtd">
<svg version="1.0" xmlns="http://www.w3.org/2000/svg"
 width="1089.000000pt" height="1280.000000pt" viewBox="0 0 1089.000000 1280.000000"
 preserveAspectRatio="xMidYMid meet">
<g transform="translate(0.000000,1280.000000) scale(0.100000,-0.100000)"
fill="#000000" stroke="none">
<path d="M6130 12797 c-3 -3 -122 -10 -265 -16 -628 -28 -1204 -87 -1705 -176
-963 -171 -1664 -440 -1991 -765 -96 -94 -147 -168 -187 -268 l-27 -67 0 -430
c0 -423 0 -431 23 -504 178 -566 1441 -1031 3222 -1186 764 -66 1662 -66 2430
1 1524 131 2680 491 3091 961 80 92 115 157 141 268 24 97 25 110 23 475 l-2
375 -27 80 c-39 114 -87 187 -190 291 -561 560 -2171 929 -4201 961 -181 3
-332 3 -335 0z m770 -877 c1421 -54 2596 -286 3279 -646 142 -75 283 -172 279
-193 -5 -27 -155 -126 -308 -205 -662 -340 -1787 -565 -3120 -626 -289 -13
-941 -13 -1230 0 -1333 61 -2458 286 -3120 626 -153 79 -303 178 -308 205 -4
21 137 118 279 193 848 448 2569 710 4249 646z"/>
<path d="M6395 8595 c-338 -32 -657 -111 -882 -216 -133 -63 -326 -284 -566
-649 -126 -193 -270 -430 -338 -558 -42 -79 -43 -83 -25 -95 11 -7 196 -108
410 -225 409 -223 697 -372 718 -372 7 0 45 58 83 127 182 330 443 740 579
909 70 88 206 220 249 243 32 17 35 14 128 -124 60 -88 259 -477 259 -506 0
-8 -69 -56 -157 -110 -87 -53 -158 -100 -158 -105 1 -5 25 -12 55 -16 189 -23
1217 -128 1259 -128 22 0 31 6 36 23 4 12 108 277 233 589 124 312 223 571
219 574 -3 3 -78 -30 -166 -75 -88 -45 -163 -81 -168 -81 -4 0 -26 35 -48 77
-104 199 -243 368 -404 489 -153 115 -317 186 -506 220 -125 22 -619 28 -810
9z"/>
<path d="M8330 6937 c-221 -152 -881 -626 -908 -651 -10 -10 25 -69 180 -302
362 -541 543 -879 574 -1071 l6 -42 -42 -11 c-125 -34 -197 -41 -440 -47 -210
-5 -257 -3 -267 8 -6 8 -17 95 -23 197 -7 100 -17 182 -22 182 -5 0 -32 -37
-60 -82 -89 -141 -381 -576 -490 -729 -115 -162 -177 -274 -185 -337 -11 -80
10 -109 354 -484 170 -185 203 -213 257 -213 38 0 47 -6 161 -122 67 -68 124
-121 127 -118 3 3 4 83 1 178 -2 95 -1 177 4 183 5 7 65 17 143 23 74 6 167
18 205 26 286 61 543 211 709 413 158 194 392 684 496 1038 71 242 120 564
107 694 -14 126 -127 385 -297 676 -100 172 -436 684 -448 684 -4 0 -68 -42
-142 -93z"/>
<path d="M4855 6685 c-38 -8 -315 -57 -615 -111 -300 -53 -547 -98 -549 -101
-9 -7 24 -30 164 -119 77 -48 142 -89 144 -90 2 -2 -13 -30 -33 -63 -51 -83
-120 -231 -150 -323 -42 -125 -58 -215 -63 -363 -6 -164 11 -288 56 -417 16
-46 44 -126 62 -178 92 -270 144 -374 302 -605 43 -63 176 -214 270 -307 177
-176 306 -270 452 -332 113 -47 260 -71 588 -97 145 -11 833 -6 970 7 l59 6
-7 136 c-7 147 -14 260 -45 752 -11 173 -23 339 -26 368 l-6 53 -91 -8 c-51
-4 -299 -8 -552 -8 -382 0 -484 3 -602 18 -217 27 -353 67 -353 105 0 43 96
249 180 387 32 53 153 235 176 264 2 2 78 -36 170 -83 92 -48 171 -85 176 -84
6 2 -520 1097 -571 1188 -11 20 -24 21 -106 5z"/>
<path d="M6021 2890 c-1122 -42 -2080 -255 -2547 -565 -99 -67 -208 -180 -241
-252 -24 -52 -25 -58 -21 -261 4 -203 5 -208 32 -265 167 -348 959 -638 2076
-761 386 -43 554 -51 1100 -50 544 0 709 7 1090 50 1042 115 1800 374 2036
695 59 80 65 112 71 335 l5 202 -29 58 c-157 325 -905 615 -1913 743 -498 64
-1133 91 -1659 71z"/>
</g>
</svg>
